<?xml version="1.0" encoding="UTF-8" standalone="no"?>
<!-- Created with Inkscape (http://www.inkscape.org/) -->

<svg
   width="99.640945mm"
   height="90.389305mm"
   viewBox="0 0 99.640948 90.389307"
   version="1.1"
   id="svg1"
   inkscape:version="1.3 (0e150ed6c4, 2023-07-21)"
   sodipodi:docname="name-voyager-logo-white.svg"
   xmlns:inkscape="http://www.inkscape.org/namespaces/inkscape"
   xmlns:sodipodi="http://sodipodi.sourceforge.net/DTD/sodipodi-0.dtd"
   xmlns="http://www.w3.org/2000/svg"
   xmlns:svg="http://www.w3.org/2000/svg">
  <sodipodi:namedview
     id="namedview1"
     pagecolor="#505050"
     bordercolor="#eeeeee"
     borderopacity="1"
     inkscape:showpageshadow="0"
     inkscape:pageopacity="0"
     inkscape:pagecheckerboard="0"
     inkscape:deskcolor="#505050"
     inkscape:document-units="mm"
     inkscape:zoom="1"
     inkscape:cx="191.5"
     inkscape:cy="410"
     inkscape:window-width="1502"
     inkscape:window-height="1360"
     inkscape:window-x="2129"
     inkscape:window-y="232"
     inkscape:window-maximized="0"
     inkscape:current-layer="layer1" />
  <defs
     id="defs1">
    <rect
       x="205"
       y="686"
       width="349"
       height="57"
       id="rect2" />
    <rect
       x="220"
       y="673"
       width="329"
       height="62"
       id="rect1" />
  </defs>
  <g
     inkscape:label="Layer 1"
     inkscape:groupmode="layer"
     id="layer1"
     transform="translate(-55.296261,-84.321773)">
    <path
       id="path1"
       style="fill:#ffffff;fill-opacity:1;stroke-width:0.264583"
       d="m 145.39567,84.321773 -0.83147,3.475757 -3.47576,0.830957 3.47576,0.831474 0.83147,3.475757 0.83096,-3.475757 3.47576,-0.831474 -3.47576,-0.830957 z m -10.10274,1.678968 -0.39894,1.668115 -1.6676,0.398425 1.6676,0.398942 0.39894,1.667599 0.39843,-1.667599 1.6676,-0.398942 -1.6676,-0.398425 z m -28.12335,5.648234 a 41.53088,41.53088 0 0 0 -41.530798,41.530795 41.53088,41.53088 0 0 0 0.167949,2.34508 12.589547,40.813412 70 0 0 -10.51047,14.09785 12.589547,40.813412 70 0 0 0.694532,1.07383 c 0.606027,0.66112 1.569889,1.4228 3.103686,2.05673 a 12.589547,40.813412 70 0 0 1.049032,0.38653 c 8.4e-4,2.7e-4 0.0017,7.7e-4 0.0026,0.001 0.133051,0.0421 0.281811,0.0789 0.42168,0.11885 a 12.589547,40.813412 70 0 0 0.534851,0.0915 c 0.35745,0.0763 0.758538,0.14304 1.189075,0.20361 a 12.589547,40.813412 70 0 0 8.930204,0.23151 12.589547,40.813412 70 0 0 0.001,0 c 0.804232,-0.0835 1.660558,-0.19828 2.545064,-0.33073 16.601647,-1.89714 36.950405,-9.95451 47.156295,-14.36605 l 1.72909,-0.75603 c 2.5578,-1.12909 4.38115,-1.97559 4.72323,-2.13837 0.49202,-0.15855 0.46405,-0.13694 0.46405,-0.13694 0,0 -0.81193,0.71593 -1.98024,1.70274 -5.50797,5.15719 -25.2438,22.48179 -45.917608,26.56892 a 41.53088,41.53088 0 0 0 27.226758,10.38128 41.53088,41.53088 0 0 0 41.53132,-41.53132 41.53088,41.53088 0 0 0 -41.53132,-41.530795 z m -34.551379,1.09554 -0.541569,2.264975 -2.264978,0.54157 2.264978,0.54157 0.541569,2.26446 0.541053,-2.26446 2.264978,-0.54157 -2.264978,-0.54157 z m 80.073669,1.496549 -0.43305,1.812296 -1.81177,0.43304 1.81177,0.43305 0.43305,1.81178 0.43305,-1.81178 1.81229,-0.43305 -1.81229,-0.43304 z m -42.36744,3.357416 1.22628,5.1294 5.1294,1.22629 -5.1294,1.22628 -1.22628,5.1294 -1.22628,-5.1294 -5.12941,-1.22628 5.12941,-1.22629 z m -19.371947,2.61121 0.725537,3.03444 3.034957,0.72554 -3.034957,0.72605 -0.725537,3.03444 -0.725537,-3.03444 -3.034957,-0.72605 3.034957,-0.72554 z m 11.973947,15.16755 0.68678,2.87269 2.87269,0.6873 -2.87269,0.68678 -0.68678,2.87269 -0.68678,-2.87269 -2.872694,-0.68678 2.872694,-0.6873 z m 33.38711,14.31902 -4.91339,6.94067 -2.81999,-3.48196 z" />
  </g>
</svg>
